<svg width="24" height="24" viewBox="0 0 19.5 28" fill="none" xmlns="http://www.w3.org/2000/svg">
  <path
    fill-rule="evenodd"
    clip-rule="evenodd"
    d="M18.4721 12.8041C18.4721 12.992 18.4205 13.18 18.3163 13.3485C15.6196 17.7318 13.309 20.934 9.79183 25.1649C9.45485 25.5697 8.98917 25.5967 8.66573 25.4875C8.34145 25.3783 7.98838 25.0743 7.96636 24.5494C7.87108 22.3119 7.82769 20.075 7.85612 17.8363C7.86096 17.4549 7.55234 17.1427 7.17088 17.1443C5.48881 17.1514 3.80693 17.1343 2.12502 17.1053C1.74317 17.0985 1.40533 16.8944 1.2233 16.5608C1.0421 16.2298 1.05226 15.8403 1.25039 15.5186C3.94711 11.1361 6.25773 7.93303 9.7749 3.7021C10.111 3.29738 10.5776 3.27029 10.901 3.37951C11.2244 3.48873 11.5784 3.7927 11.6004 4.31765C11.6957 6.55572 11.7392 8.79327 11.7106 11.0326C11.7058 11.4133 12.0132 11.7252 12.394 11.7242C14.077 11.7197 15.7596 11.733 17.4426 11.7626C17.8244 11.7694 18.1614 11.9726 18.3434 12.3062C18.4298 12.4637 18.4721 12.6339 18.4721 12.8041Z"
    fill="#1ebab2"
  />
</svg>
