<svg width="16" height="16" viewBox="0 0 16 16" fill="none" xmlns="http://www.w3.org/2000/svg">
<path fill-rule="evenodd" clip-rule="evenodd" d="M12.6625 13.6619H3.33709C2.60104 13.6619 2.00488 13.0657 2.00488 12.3297V6.33475C2.00488 5.59871 2.60104 5.00255 3.33709 5.00255H12.6625C13.3985 5.00255 13.9947 5.59871 13.9947 6.33475V12.3297C13.9947 13.0657 13.3985 13.6619 12.6625 13.6619Z" stroke="#3B58DB" stroke-width="1.5" stroke-linecap="round" stroke-linejoin="round"/>
<path d="M10.7803 5.00254V3.67034C10.7803 2.9343 10.1842 2.33813 9.44814 2.33813H6.55193C5.81589 2.33813 5.21973 2.9343 5.21973 3.67034V5.00254" stroke="#3B58DB" stroke-width="1.5" stroke-linecap="round" stroke-linejoin="round"/>
<path d="M10.6661 9.66645H4.33721C3.0491 9.66645 2.00488 8.62224 2.00488 7.33413" stroke="#3B58DB" stroke-width="1.5" stroke-linecap="round" stroke-linejoin="round"/>
<path d="M9.33496 9.66643H11.6673C12.9554 9.66643 13.9996 8.62221 13.9996 7.33411V7.33411" stroke="#3B58DB" stroke-width="1.5" stroke-linecap="round" stroke-linejoin="round"/>
</svg>
