<svg width="98" height="28" viewBox="0 0 98 28" fill="none" xmlns="http://www.w3.org/2000/svg">
<g clip-path="url(#clip0_1_603)">
<path d="M88.81 7.16002C89.8455 7.16002 90.8193 7.35003 91.7313 7.73003C92.6528 8.11004 93.4413 8.63255 94.0968 9.29757C94.7618 9.95308 95.2844 10.7463 95.6644 11.6774C96.0539 12.5989 96.2486 13.5822 96.2486 14.6272C96.2486 16.0237 95.9209 17.292 95.2654 18.432C94.6193 19.572 93.7263 20.4651 92.5863 21.1111C91.4558 21.7476 90.197 22.0658 88.81 22.0658C86.6914 22.0658 84.9196 21.3581 83.4946 19.9425C82.0696 18.527 81.3571 16.7552 81.3571 14.6272C81.3571 12.4991 82.0696 10.7226 83.4946 9.29757C84.9196 7.87254 86.6914 7.16002 88.81 7.16002ZM88.81 11.0931C87.8315 11.0931 87.0144 11.4304 86.3589 12.1049C85.7129 12.7699 85.3899 13.6107 85.3899 14.6272C85.3899 15.6152 85.7129 16.4465 86.3589 17.121C87.0144 17.7955 87.8315 18.1328 88.81 18.1328C89.7695 18.1328 90.577 17.7955 91.2325 17.121C91.888 16.4465 92.2158 15.6152 92.2158 14.6272C92.2158 13.6107 91.888 12.7699 91.2325 12.1049C90.5865 11.4304 89.779 11.0931 88.81 11.0931Z" fill="#07C8C0"/>
<path d="M73.8787 7.16002C75.6837 7.16002 77.104 7.74428 78.1395 8.91281C79.1845 10.0718 79.707 11.6584 79.707 13.6724V21.1035C79.707 21.4776 79.4038 21.7808 79.0297 21.7808H76.2661C75.892 21.7808 75.5887 21.4776 75.5887 21.1035V14.3707C75.5887 13.3922 75.3417 12.6274 74.8477 12.0764C74.3537 11.5254 73.6792 11.2499 72.8241 11.2499C72.2541 11.2499 71.7079 11.3971 71.1854 11.6916C70.7196 11.9541 70.3445 12.2959 70.0599 12.7169C69.9915 12.8181 69.9598 12.9389 69.9598 13.061V21.1035C69.9598 21.4776 69.6566 21.7808 69.2825 21.7808H66.5188C66.1448 21.7808 65.8415 21.4776 65.8415 21.1035V8.12238C65.8415 7.74829 66.1448 7.44503 66.5188 7.44503H69.2825C69.6566 7.44503 69.9598 7.74829 69.9598 8.12238V8.56256C69.9598 8.7317 70.1955 8.80626 70.3072 8.67917C70.6537 8.28462 71.0842 7.95874 71.5986 7.70153C72.3111 7.34052 73.0712 7.16002 73.8787 7.16002Z" fill="#07C8C0"/>
<path d="M56.7238 7.16002C57.7593 7.16002 58.7331 7.35003 59.6451 7.73003C60.5666 8.11004 61.3551 8.63255 62.0107 9.29757C62.6757 9.95308 63.1982 10.7463 63.5782 11.6774C63.9677 12.5989 64.1625 13.5822 64.1625 14.6272C64.1625 16.0237 63.8347 17.292 63.1792 18.432C62.5332 19.572 61.6402 20.4651 60.5001 21.1111C59.3696 21.7476 58.1108 22.0658 56.7238 22.0658C54.6052 22.0658 52.8335 21.3581 51.4084 19.9425C49.9834 18.527 49.2709 16.7552 49.2709 14.6272C49.2709 12.4991 49.9834 10.7226 51.4084 9.29757C52.8335 7.87254 54.6052 7.16002 56.7238 7.16002ZM56.7238 11.0931C55.7453 11.0931 54.9283 11.4304 54.2727 12.1049C53.6267 12.7699 53.3037 13.6107 53.3037 14.6272C53.3037 15.6152 53.6267 16.4465 54.2727 17.121C54.9283 17.7955 55.7453 18.1328 56.7238 18.1328C57.6833 18.1328 58.4908 17.7955 59.1463 17.121C59.8019 16.4465 60.1296 15.6152 60.1296 14.6272C60.1296 13.6107 59.8019 12.7699 59.1463 12.1049C58.5003 11.4304 57.6928 11.0931 56.7238 11.0931Z" fill="#07C8C0"/>
<path d="M47.0026 7.16002C47.4961 7.16002 47.9226 7.19894 48.2821 7.27677C48.5698 7.33907 48.7428 7.61584 48.7244 7.90966L48.5696 10.3783C48.5413 10.8286 48.0875 11.1242 47.6441 11.0411C47.3223 10.9808 46.9992 10.9506 46.6748 10.9506C45.8937 10.9506 45.1229 11.3298 44.5127 11.8748C43.7383 12.5664 43.554 13.6566 43.554 14.6949V21.1035C43.554 21.4776 43.2507 21.7808 42.8766 21.7808H40.113C39.7389 21.7808 39.4356 21.4776 39.4356 21.1035V8.12238C39.4356 7.74829 39.7389 7.44503 40.113 7.44503H42.8766C43.2507 7.44503 43.554 7.74829 43.554 8.12238V8.49637C43.554 8.67049 43.8094 8.74575 43.922 8.613C44.2209 8.26095 44.5969 7.96188 45.0503 7.71578C45.7248 7.34527 46.3755 7.16002 47.0026 7.16002Z" fill="#07C8C0"/>
<path d="M36.9383 17.6875C37.2767 17.8395 37.4331 18.2377 37.2513 18.5611C36.7063 19.5307 35.9267 20.3284 34.9126 20.9543C33.6966 21.6953 32.3285 22.0658 30.8085 22.0658C28.6614 22.0658 26.8659 21.3581 25.4219 19.9426C23.9873 18.527 23.2701 16.7552 23.2701 14.6272C23.2701 12.4991 23.9873 10.7226 25.4219 9.29757C26.8659 7.87254 28.6614 7.16002 30.8085 7.16002C32.1955 7.16002 33.4448 7.47828 34.5563 8.11479C35.475 8.63639 36.2118 9.30791 36.7668 10.1294C36.9723 10.4335 36.8529 10.8389 36.534 11.0206L34.2328 12.3315C33.9023 12.5198 33.4873 12.3907 33.2312 12.1094C33.0193 11.8765 32.7674 11.6802 32.4758 11.5206C31.9818 11.2356 31.426 11.0931 30.8085 11.0931C29.792 11.0931 28.9512 11.4304 28.2862 12.1049C27.6307 12.7794 27.3029 13.6202 27.3029 14.6272C27.3029 15.6247 27.6307 16.4607 28.2862 17.1352C28.9512 17.8003 29.792 18.1328 30.8085 18.1328C31.502 18.1328 32.1195 17.976 32.661 17.6625C33.0167 17.454 33.315 17.1941 33.5558 16.8827C33.7802 16.5926 34.1671 16.4426 34.5016 16.5929L36.9383 17.6875Z" fill="#07C8C0"/>
<path fill-rule="evenodd" clip-rule="evenodd" d="M18.4721 12.8041C18.4721 12.992 18.4205 13.18 18.3163 13.3485C15.6196 17.7318 13.309 20.934 9.79183 25.1649C9.45485 25.5697 8.98917 25.5967 8.66573 25.4875C8.34145 25.3783 7.98838 25.0743 7.96636 24.5494C7.87108 22.3119 7.82769 20.075 7.85612 17.8363C7.86096 17.4549 7.55234 17.1427 7.17088 17.1443C5.48881 17.1514 3.80693 17.1343 2.12502 17.1053C1.74317 17.0985 1.40533 16.8944 1.2233 16.5608C1.0421 16.2298 1.05226 15.8403 1.25039 15.5186C3.94711 11.1361 6.25773 7.93303 9.7749 3.7021C10.111 3.29738 10.5776 3.27029 10.901 3.37951C11.2244 3.48873 11.5784 3.7927 11.6004 4.31765C11.6957 6.55572 11.7392 8.79327 11.7106 11.0326C11.7058 11.4133 12.0132 11.7252 12.394 11.7242C14.077 11.7197 15.7596 11.733 17.4426 11.7626C17.8244 11.7694 18.1614 11.9726 18.3434 12.3062C18.4298 12.4637 18.4721 12.6339 18.4721 12.8041Z" fill="#07C8C0"/>
</g>
<defs>
<clipPath id="clip0_1_603">
<rect width="98" height="28" fill="white"/>
</clipPath>
</defs>
</svg>
